HIERARCHY
ROOT Hips
{
	OFFSET 0.000000 88.474243 0.000000
	CHANNELS 6 Xposition Yposition Zposition Zrotation Yrotation Xrotation 
	JOINT Hips_Spine
	{
		OFFSET 0.000000 0.000000 0.000000
		CHANNELS 3 Zrotation Yrotation Xrotation
		JOINT Spine
		{
			OFFSET 0.005100 8.711998 -0.691000
			CHANNELS 3 Zrotation Yrotation Xrotation
			JOINT Spine1
			{
				OFFSET -0.009200 8.660301 -1.275000
				CHANNELS 3 Zrotation Yrotation Xrotation
				JOINT Spine2
				{
					OFFSET 0.006300 9.852501 -1.857000
					CHANNELS 3 Zrotation Yrotation Xrotation
					JOINT Spine2_Neck
					{
						OFFSET 0.000000 0.000000 0.000000
						CHANNELS 3 Zrotation Yrotation Xrotation
						JOINT Neck
						{
							OFFSET 0.016300 11.420799 -0.263300
							CHANNELS 3 Zrotation Yrotation Xrotation
							End Site #name: Head
							{
								OFFSET -0.019200 9.262405 2.362500
							}
						}
					}
					JOINT Spine2_LeftShoulder
					{
						OFFSET 0.000000 0.000000 0.000000
						CHANNELS 3 Zrotation Yrotation Xrotation
						JOINT LeftShoulder
						{
							OFFSET 5.616900 6.732201 -0.345700
							CHANNELS 3 Zrotation Yrotation Xrotation
							JOINT LeftArm
							{
								OFFSET 10.664888 -0.183372 -2.440700
								CHANNELS 3 Zrotation Yrotation Xrotation
								JOINT LeftForeArm
								{
									OFFSET 27.459126 0.000000 0.000000
									CHANNELS 3 Zrotation Yrotation Xrotation
									End Site #name: LeftHand
									{
										OFFSET 21.306858 0.000000 0.000000
									}
								}
							}
						}
					}
					JOINT Spine2_RightShoulder
					{
						OFFSET 0.000000 0.000000 0.000000
						CHANNELS 3 Zrotation Yrotation Xrotation
						JOINT RightShoulder
						{
							OFFSET -5.580300 6.737503 -0.344400
							CHANNELS 3 Zrotation Yrotation Xrotation
							JOINT RightArm
							{
								OFFSET -10.679335 -0.188484 -2.383900
								CHANNELS 3 Zrotation Yrotation Xrotation
								JOINT RightForeArm
								{
									OFFSET -27.503529 0.000000 0.000000
									CHANNELS 3 Zrotation Yrotation Xrotation
									End Site #name: RightHand
									{
										OFFSET -21.306808 0.000000 0.000000
									}
								}
							}
						}
					}
				}
			}
		}
	}
	JOINT Hips_LeftUpLeg
	{
		OFFSET 0.000000 0.000000 0.000000
		CHANNELS 3 Zrotation Yrotation Xrotation
		JOINT LeftUpLeg
		{
			OFFSET 6.857700 -6.739601 0.312100
			CHANNELS 3 Zrotation Yrotation Xrotation
			JOINT LeftLeg
			{
				OFFSET -0.367590 -34.731552 -4.572400
				CHANNELS 3 Zrotation Yrotation Xrotation
				End Site #name: LeftFoot
				{
					OFFSET 0.367590 -34.656704 -6.067400
				}
			}
		}
	}
	JOINT Hips_RightUpLeg
	{
		OFFSET 0.000000 0.000000 0.000000
		CHANNELS 3 Zrotation Yrotation Xrotation
		JOINT RightUpLeg
		{
			OFFSET -6.876100 -6.733299 0.301000
			CHANNELS 3 Zrotation Yrotation Xrotation
			JOINT RightLeg
			{
				OFFSET 0.347353 -34.795158 -4.515900
				CHANNELS 3 Zrotation Yrotation Xrotation
				End Site #name: RightFoot
				{
					OFFSET -0.347353 -34.589367 -6.070300
				}
			}
		}
	}
}
MOTION
Frames: 12
Frame Time: 0.041667
0.041616 0.027449 -0.076394 -3.987555 -0.272362 -6.132045 0.000000 0.000000 0.000000 0.773060 1.691587 16.672121 0.965896 0.956770 2.517851 0.000000 0.000000 0.000000 1.088665 0.898898 1.298052 0.890619 -0.829000 6.236876 0.752517 0.682265 2.724913 -8.805135 -9.120601 1.804078 -56.217171 -2.957514 9.746919 0.576896 -43.554547 -0.001757 1.389429 0.724057 2.933089 6.951855 -5.325401 0.543190 72.060778 7.850560 37.589892 -0.059484 37.061047 0.750735 0.000000 0.000000 0.000000 6.403618 7.142098 -90.407082 2.682703 -3.594949 85.701914 0.000000 0.000000 0.000000 -3.816222 -9.439787 -82.406927 -1.970415 1.132861 83.364585 
0.075232 0.066418 -0.145846 -4.039945 -0.193941 -3.738615 0.000000 0.000000 0.000000 2.247944 0.677133 13.761390 0.745258 0.603717 2.162114 0.000000 0.000000 0.000000 0.865270 0.692256 1.511071 0.646918 -1.000416 4.446316 0.961610 0.792768 2.587777 -6.767307 -7.283508 0.886698 -59.995847 -6.583645 5.435108 -0.157613 -41.811957 1.126279 0.688189 0.609395 2.518900 7.587237 -6.150690 0.389090 71.951032 9.894893 30.420942 0.127834 38.465782 0.571392 0.000000 0.000000 -0.000000 5.665718 8.068207 -92.508600 3.227642 -3.934733 83.313383 0.000000 0.000000 0.000000 -2.087523 -10.932216 -87.674791 -2.061808 1.499722 83.270991 
0.090667 0.067615 -0.208628 -3.885648 0.787827 -2.780228 0.000000 0.000000 0.000000 2.546198 0.610552 13.895706 0.710777 0.661908 1.857508 0.000000 0.000000 0.000000 0.887094 0.575487 1.370262 1.306522 -0.354463 4.239377 0.882499 0.704651 2.138689 -7.043733 -7.006663 0.619805 -59.060190 -4.838021 7.123106 -0.111760 -40.587206 0.885306 0.772001 0.633647 2.235451 7.184607 -6.253153 0.340218 71.276981 11.118733 28.856506 0.125191 40.889677 0.209658 0.000000 0.000000 -0.000000 5.309910 7.605857 -92.789851 3.126331 -3.838304 81.984356 0.000000 0.000000 0.000000 -3.047512 -11.006203 -89.918974 -2.831182 1.026644 84.818067 
0.102828 0.063645 -0.269170 -3.745392 1.027255 -2.505544 0.000000 0.000000 0.000000 2.467719 0.891650 13.766533 0.729467 0.660166 1.855962 0.000000 0.000000 0.000000 0.971104 0.609668 1.187448 1.338647 -0.203863 4.616313 0.862752 0.636873 1.980805 -6.856184 -7.427818 0.688896 -60.081022 -5.994770 5.263084 -0.105829 -39.334561 0.828833 0.854471 0.614907 2.217297 7.268248 -6.505969 0.280931 72.594062 13.071887 28.198925 0.049964 44.640378 0.058001 -0.000000 0.000000 -0.000000 5.076937 7.640796 -92.624269 3.158395 -3.662173 81.747495 0.000000 0.000000 -0.000000 -3.095693 -11.181459 -90.973623 -2.829110 0.987150 85.455721 
0.117429 0.059744 -0.324771 -3.738977 1.138029 -2.503209 0.000000 0.000000 0.000000 2.527612 1.010210 13.890807 0.734470 0.635177 1.951591 0.000000 0.000000 0.000000 0.970230 0.606678 1.214492 1.279818 -0.229909 5.116257 0.855602 0.581551 1.977380 -6.975049 -7.550692 0.805716 -60.302418 -6.944486 3.708627 -0.073613 -39.565648 0.806127 0.858117 0.593746 2.403188 7.695831 -6.867493 0.185458 73.598265 14.428816 28.524645 -0.029989 47.948123 -0.010727 -0.000000 0.000000 -0.000000 4.988506 7.668249 -92.660327 3.165250 -3.515620 81.818602 0.000000 0.000000 -0.000000 -3.227607 -11.135296 -91.102541 -2.704601 1.018463 85.628744 
0.132489 0.059508 -0.375753 -3.763261 1.095360 -2.599195 0.000000 0.000000 0.000000 2.567770 0.949321 14.188669 0.727893 0.602085 2.028839 0.000000 0.000000 0.000000 0.952281 0.582230 1.333207 1.268643 -0.283224 5.413165 0.844226 0.537263 2.054736 -6.879643 -7.402939 0.805590 -60.499277 -7.557678 3.730850 -0.070171 -41.468079 0.804639 0.843993 0.559711 2.525316 7.959075 -6.740825 0.190578 73.597876 15.432784 28.074015 -0.094865 50.185305 -0.057832 -0.000000 0.000000 -0.000000 5.010646 7.812416 -92.674560 3.168557 -3.502714 81.962109 0.000000 0.000000 -0.000000 -3.377188 -11.012214 -90.994053 -2.658568 1.047171 85.648008 
0.147265 0.062365 -0.423839 -3.775898 1.044510 -2.677695 0.000000 0.000000 0.000000 2.585827 0.882188 14.398324 0.719927 0.574103 2.113735 0.000000 0.000000 0.000000 0.933687 0.565293 1.429147 1.286304 -0.336322 5.573666 0.831881 0.518417 2.125529 -6.731964 -7.136867 0.732893 -60.468273 -7.879122 4.302100 -0.096511 -44.689455 0.866272 0.829570 0.543270 2.607600 8.077368 -6.451564 0.219161 73.377500 16.083248 27.673253 -0.102160 51.129111 -0.058999 -0.000000 0.000000 -0.000000 5.063853 7.866689 -92.655543 3.155583 -3.522806 82.078850 0.000000 0.000000 -0.000000 -3.475508 -10.941472 -90.894922 -2.640503 1.097967 85.632158 
0.159313 0.066132 -0.469866 -3.776073 1.030855 -2.716691 0.000000 0.000000 0.000000 2.596015 0.841143 14.499455 0.692307 0.559121 2.190159 0.000000 0.000000 0.000000 0.921595 0.554421 1.498877 1.298359 -0.350237 5.765714 0.825073 0.515382 2.195195 -6.601015 -6.865893 0.657599 -60.295716 -8.005137 5.002298 -0.140271 -48.350805 0.939751 0.815827 0.544659 2.653704 8.024980 -6.194262 0.267545 73.224315 16.395315 27.211041 -0.085465 51.361278 -0.034782 -0.000000 0.000000 -0.000000 5.090358 7.842926 -92.682894 3.124121 -3.546506 82.160849 0.000000 0.000000 -0.000000 -3.557512 -10.887855 -90.825952 -2.658161 1.137768 85.614755 
0.165625 0.069933 -0.514712 -3.774694 1.036805 -2.713997 0.000000 0.000000 0.000000 2.592107 0.797105 14.613912 0.673468 0.554728 2.245629 0.000000 0.000000 0.000000 0.917293 0.550011 1.562235 1.315187 -0.356699 5.955171 0.818759 0.516137 2.249777 -6.496669 -6.606704 0.587913 -60.153895 -7.856177 5.559812 -0.197983 -51.852303 1.013081 0.806755 0.546797 2.682152 7.878196 -5.995354 0.313692 73.268916 16.497112 26.734514 -0.054734 51.720938 0.009569 -0.000000 0.000000 -0.000000 5.108678 7.818349 -92.704636 3.078347 -3.573984 82.201079 0.000000 0.000000 -0.000000 -3.607690 -10.852340 -90.799206 -2.667839 1.159686 85.596632 
0.167189 0.073465 -0.558439 -3.768817 1.058935 -2.687074 0.000000 0.000000 0.000000 2.588386 0.776307 14.713553 0.656910 0.555583 2.280683 0.000000 0.000000 0.000000 0.908810 0.549480 1.591542 1.312815 -0.366646 6.101921 0.809097 0.516438 2.272766 -6.436909 -6.352654 0.514243 -60.083492 -7.659967 5.908395 -0.260337 -54.833877 1.088492 0.795871 0.548893 2.694591 7.682479 -5.907553 0.348941 73.450980 16.505240 26.196644 -0.021773 52.766237 0.061562 0.000000 0.000000 -0.000000 5.113569 7.794093 -92.722760 3.034854 -3.599635 82.200490 0.000000 0.000000 -0.000000 -3.630864 -10.835959 -90.802684 -2.676572 1.171695 85.585078 
0.164670 0.077060 -0.601199 -3.764755 1.091154 -2.656420 0.000000 0.000000 0.000000 2.579829 0.751925 14.785782 0.635576 0.560808 2.291158 0.000000 0.000000 0.000000 0.896030 0.549209 1.596380 1.302799 -0.378899 6.209980 0.794675 0.513910 2.275843 -6.326377 -6.049761 0.430045 -60.114574 -7.466491 6.088643 -0.320765 -57.170284 1.156400 0.778071 0.549900 2.690692 7.473185 -5.916937 0.372702 73.598519 16.476705 25.560202 0.011063 55.451706 0.113210 0.000000 0.000000 -0.000000 5.113844 7.782544 -92.746268 2.994050 -3.620607 82.195830 0.000000 0.000000 -0.000000 -3.642468 -10.827663 -90.817198 -2.686205 1.177073 85.578343 
0.158896 0.080859 -0.643301 -3.760870 1.123562 -2.625352 0.000000 0.000000 0.000000 2.566960 0.731720 14.828650 0.614406 0.566717 2.287604 0.000000 0.000000 0.000000 0.881852 0.550481 1.585787 1.287965 -0.396157 6.295391 0.778215 0.510490 2.265275 -6.205833 -5.765072 0.352982 -60.192752 -7.271958 6.246191 -0.368640 -58.762963 1.210415 0.760704 0.548638 2.677064 7.247808 -5.978020 0.391241 73.609080 16.383260 24.423972 0.051256 59.804488 0.173236 0.000000 0.000000 -0.000000 5.110812 7.779706 -92.779640 2.957403 -3.634020 82.204275 0.000000 0.000000 -0.000000 -3.644280 -10.825613 -90.839293 -2.694378 1.180118 85.583633 
